<svg width="401" height="351" viewBox="0 0 401 351" fill="none" xmlns="http://www.w3.org/2000/svg">
<path fill-rule="evenodd" clip-rule="evenodd" d="M161.547 1.535C52.219 11.076 -20.791 114.543 6.55098 221.19C33.106 324.767 149.582 379.738 248.147 335.213C296.449 313.394 336.314 312.125 374.043 331.208C390.83 339.699 401 336.574 401 322.925C401 307.747 363.546 292.309 323.47 290.969L308.049 290.453L312.428 284.984C373.598 208.602 359.108 94.904 280.713 36.132C246.992 10.852 202.571 -2.045 161.547 1.535ZM186.297 47.008C213.75 56.453 221.639 88.955 201.336 108.971C178.107 131.873 138.5 114.961 138.5 82.139C138.5 58.037 163.961 39.323 186.297 47.008ZM104.32 112.155C139.738 129.66 128.215 182.231 88.891 182.546C52.314 182.839 37.821 135.687 68.086 114.863C78.297 107.838 93.314 106.716 104.32 112.155ZM273.876 110.436C305.447 120.985 308.561 164.069 278.815 178.771C244.522 195.719 210.784 156.224 232.326 124.347C241.17 111.26 258.739 105.378 273.876 110.436ZM179.601 162.31C193.354 166.394 193.288 185.702 179.508 189.708C161.644 194.901 153.663 167.863 171.424 162.323C175.76 160.97 175.093 160.971 179.601 162.31ZM133.707 212.817C160.05 221.88 167.504 255.594 147.336 274.46C126.087 294.338 92.621 284.443 85.71 256.24C78.908 228.487 106.555 203.475 133.707 212.817ZM234.594 211.191C279.13 218.247 274.911 284.453 229.906 284.765C184.286 285.081 178.673 218.989 223.656 211.17C228.664 210.299 228.968 210.3 234.594 211.191Z" fill="#333333"/>
</svg>
